name analog
datacolumns 19
datarows 50
range 0.362 0.3865
endheader
time	ground_force_vx	ground_force_vy	ground_force_vz	ground_force_px	ground_force_py	ground_force_pz	l_ground_force_vx	l_ground_force_vy	l_ground_force_vz	l_ground_force_px	l_ground_force_py	l_ground_force_pz	ground_torque_x	ground_torque_y	ground_torque_z	l_ground_torque_x	l_ground_torque_y	l_ground_torque_z
0.362	-0.0	-0.0	-0.0	-0.3806338906288147	-6.613468647003174	-724.4898681640625	-0.0	-0.0	-0.0	-0.0	-0.0	-0.0	-0.0	-0.0	-0.0	-0.0	-0.0	-0.0
0.3625	-0.0	-0.0	-0.0	-0.0952845215797424	-5.175631999969482	-722.7244873046875	-0.0	-0.0	-0.0	-0.0	-0.0	-0.0	-0.0	-0.0	-0.0	-0.0	-0.0	-0.0
0.363	-0.0	-0.0	-0.0	0.3205546140670776	-4.040913105010986	-722.6513671875	-0.0	-0.0	-0.0	-0.0	-0.0	-0.0	-0.0	-0.0	-0.0	-0.0	-0.0	-0.0
0.3635	-0.0	-0.0	-0.0	0.6722642183303833	-2.786916255950928	-719.099609375	-0.0	-0.0	-0.0	-0.0	-0.0	-0.0	-0.0	-0.0	-0.0	-0.0	-0.0	-0.0
0.364	-0.0	-0.0	-0.0	0.4765129387378692	-2.2695651054382324	-716.2058715820312	-0.0	-0.0	-0.0	-0.0	-0.0	-0.0	-0.0	-0.0	-0.0	-0.0	-0.0	-0.0
0.3645	-0.0	-0.0	-0.0	0.809524416923523	-1.582965612411499	-715.8271484375	-0.0	-0.0	-0.0	-0.0	-0.0	-0.0	-0.0	-0.0	-0.0	-0.0	-0.0	-0.0
0.365	-0.0	-0.0	-0.0	1.640216588973999	-1.7893872261047363	-715.4475708007812	-0.0	-0.0	-0.0	-0.0	-0.0	-0.0	-0.0	-0.0	-0.0	-0.0	-0.0	-0.0
0.3655	-0.0	-0.0	-0.0	1.712096929550171	-1.045548677444458	-714.7135009765625	-0.0	-0.0	-0.0	-0.0	-0.0	-0.0	-0.0	-0.0	-0.0	-0.0	-0.0	-0.0
0.366	-0.0	-0.0	-0.0	2.2402679920196533	-0.9393795728683472	-712.2012329101562	-0.0	-0.0	-0.0	-0.0	-0.0	-0.0	-0.0	-0.0	-0.0	-0.0	-0.0	-0.0
0.3665	-0.0	-0.0	-0.0	2.051841735839844	-1.2165729999542236	-711.0182495117188	-0.0	-0.0	-0.0	-0.0	-0.0	-0.0	-0.0	-0.0	-0.0	-0.0	-0.0	-0.0
0.367	-0.0	-0.0	-0.0	2.960746049880981	-0.973103165626526	-711.981689453125	-0.0	-0.0	-0.0	-0.0	-0.0	-0.0	-0.0	-0.0	-0.0	-0.0	-0.0	-0.0
0.3675	-0.0	-0.0	-0.0	3.373276948928833	-1.141987919807434	-712.1063842773438	-0.0	-0.0	-0.0	-0.0	-0.0	-0.0	-0.0	-0.0	-0.0	-0.0	-0.0	-0.0
0.368	-0.0	-0.0	-0.0	3.9176666736602783	-1.936689019203186	-715.1593627929688	-0.0	-0.0	-0.0	-0.0	-0.0	-0.0	-0.0	-0.0	-0.0	-0.0	-0.0	-0.0
0.3685	-0.0	-0.0	-0.0	4.265614986419678	-2.513112068176269	-718.6904907226562	-0.0	-0.0	-0.0	-0.0	-0.0	-0.0	-0.0	-0.0	-0.0	-0.0	-0.0	-0.0
0.369	-0.0	-0.0	-0.0	4.663212776184082	-2.617576837539673	-721.3233642578125	-0.0	-0.0	-0.0	-0.0	-0.0	-0.0	-0.0	-0.0	-0.0	-0.0	-0.0	-0.0
0.3695	-0.0	-0.0	-0.0	4.314696311950684	-2.763042449951172	-724.758056640625	-0.0	-0.0	-0.0	-0.0	-0.0	-0.0	-0.0	-0.0	-0.0	-0.0	-0.0	-0.0
0.37	-0.0	-0.0	-0.0	3.0413217544555664	-3.0952422618865967	-725.7847900390625	-0.0	-0.0	-0.0	-0.0	-0.0	-0.0	-0.0	-0.0	-0.0	-0.0	-0.0	-0.0
0.3705	-0.0	-0.0	-0.0	3.268134593963623	-3.1682662963867188	-729.959228515625	-0.0	-0.0	-0.0	-0.0	-0.0	-0.0	-0.0	-0.0	-0.0	-0.0	-0.0	-0.0
0.371	-0.0	-0.0	-0.0	2.587104797363281	-3.1035923957824707	-734.7108764648438	-0.0	-0.0	-0.0	-0.0	-0.0	-0.0	-0.0	-0.0	-0.0	-0.0	-0.0	-0.0
0.3715	-0.0	-0.0	-0.0	1.938184142112732	-2.763042449951172	-735.1610107421875	-0.0	-0.0	-0.0	-0.0	-0.0	-0.0	-0.0	-0.0	-0.0	-0.0	-0.0	-0.0
0.372	-0.0	-0.0	-0.0	1.0215543508529663	-2.181043863296509	-737.9522094726562	-0.0	-0.0	-0.0	-0.0	-0.0	-0.0	-0.0	-0.0	-0.0	-0.0	-0.0	-0.0
0.3725	-0.0	-0.0	-0.0	0.2431198060512542	-1.8070977926254272	-738.9144897460938	-0.0	-0.0	-0.0	-0.0	-0.0	-0.0	-0.0	-0.0	-0.0	-0.0	-0.0	-0.0
0.373	-0.0	-0.0	-0.0	0.0982023179531097	-1.6419978141784668	-740.7771606445312	-0.0	-0.0	-0.0	-0.0	-0.0	-0.0	-0.0	-0.0	-0.0	-0.0	-0.0	-0.0
0.3735	-0.0	-0.0	-0.0	-0.0463267564773559	-0.8421693444252014	-740.6182861328125	-0.0	-0.0	-0.0	-0.0	-0.0	-0.0	-0.0	-0.0	-0.0	-0.0	-0.0	-0.0
0.374	-0.0	-0.0	-0.0	0.8275055289268494	-1.2631895542144775	-742.0553588867188	-0.0	-0.0	-0.0	-0.0	-0.0	-0.0	-0.0	-0.0	-0.0	-0.0	-0.0	-0.0
0.3745	-0.0	-0.0	-0.0	1.1444754600524902	-0.9311791658401488	-741.0691528320312	-0.0	-0.0	-0.0	-0.0	-0.0	-0.0	-0.0	-0.0	-0.0	-0.0	-0.0	-0.0
0.375	-0.0	-0.0	-0.0	1.3533023595809937	-1.287623167037964	-742.06884765625	-0.0	-0.0	-0.0	-0.0	-0.0	-0.0	-0.0	-0.0	-0.0	-0.0	-0.0	-0.0
0.3755	-0.0	-0.0	-0.0	1.3381576538085938	-1.1490570306777954	-741.5418090820312	-0.0	-0.0	-0.0	-0.0	-0.0	-0.0	-0.0	-0.0	-0.0	-0.0	-0.0	-0.0
0.376	-0.0	-0.0	-0.0	2.0966944694519043	-0.9454153180122375	-745.1116943359375	-0.0	-0.0	-0.0	-0.0	-0.0	-0.0	-0.0	-0.0	-0.0	-0.0	-0.0	-0.0
0.3765	-0.0	-0.0	-0.0	1.9230047464370728	-1.0299739837646484	-745.916015625	-0.0	-0.0	-0.0	-0.0	-0.0	-0.0	-0.0	-0.0	-0.0	-0.0	-0.0	-0.0
0.377	-0.0	-0.0	-0.0	1.857998609542847	-1.6988348960876465	-750.7623291015625	-0.0	-0.0	-0.0	-0.0	-0.0	-0.0	-0.0	-0.0	-0.0	-0.0	-0.0	-0.0
0.3775	-0.0	-0.0	-0.0	1.7988513708114624	-2.5453195571899414	-755.2725830078125	-0.0	-0.0	-0.0	-0.0	-0.0	-0.0	-0.0	-0.0	-0.0	-0.0	-0.0	-0.0
0.378	-0.0	-0.0	-0.0	1.5124247074127195	-2.841811418533325	-759.4354858398438	-0.0	-0.0	-0.0	-0.0	-0.0	-0.0	-0.0	-0.0	-0.0	-0.0	-0.0	-0.0
0.3785	-0.0	-0.0	-0.0	1.809134840965271	-2.9557271003723145	-759.0252075195312	-0.0	-0.0	-0.0	-0.0	-0.0	-0.0	-0.0	-0.0	-0.0	-0.0	-0.0	-0.0
0.379	-0.0	-0.0	-0.0	1.9127117395401	-2.4028213024139404	-761.9078979492188	-0.0	-0.0	-0.0	-0.0	-0.0	-0.0	-0.0	-0.0	-0.0	-0.0	-0.0	-0.0
0.3795	-0.0	-0.0	-0.0	2.8189539909362797	-2.189081907272339	-763.2354125976562	-0.0	-0.0	-0.0	-0.0	-0.0	-0.0	-0.0	-0.0	-0.0	-0.0	-0.0	-0.0
0.38	-0.0	-0.0	-0.0	4.399511337280273	-1.42608642578125	-762.1064453125	-0.0	-0.0	-0.0	-0.0	-0.0	-0.0	-0.0	-0.0	-0.0	-0.0	-0.0	-0.0
0.3805	-0.0	-0.0	-0.0	6.576514720916748	-0.7380838394165039	-762.416259765625	-0.0	-0.0	-0.0	-0.0	-0.0	-0.0	-0.0	-0.0	-0.0	-0.0	-0.0	-0.0
0.381	-0.0	-0.0	-0.0	8.067952156066895	-0.1253972649574279	-762.0186157226562	-0.0	-0.0	-0.0	-0.0	-0.0	-0.0	-0.0	-0.0	-0.0	-0.0	-0.0	-0.0
0.3815	-0.0	-0.0	-0.0	9.444961547851562	0.2284973263740539	-760.550537109375	-0.0	-0.0	-0.0	-0.0	-0.0	-0.0	-0.0	-0.0	-0.0	-0.0	-0.0	-0.0
0.382	-0.0	-0.0	-0.0	10.20888328552246	0.8158836364746094	-758.376953125	-0.0	-0.0	-0.0	-0.0	-0.0	-0.0	-0.0	-0.0	-0.0	-0.0	-0.0	-0.0
0.3825	-0.0	-0.0	-0.0	11.471358299255373	0.9940280318260192	-758.8759765625	-0.0	-0.0	-0.0	-0.0	-0.0	-0.0	-0.0	-0.0	-0.0	-0.0	-0.0	-0.0
0.383	-0.0	-0.0	-0.0	12.97425365447998	0.3160899877548218	-758.4375610351562	-0.0	-0.0	-0.0	-0.0	-0.0	-0.0	-0.0	-0.0	-0.0	-0.0	-0.0	-0.0
0.3835	-0.0	-0.0	-0.0	13.916839599609377	0.6728420853614807	-758.3303833007812	-0.0	-0.0	-0.0	-0.0	-0.0	-0.0	-0.0	-0.0	-0.0	-0.0	-0.0	-0.0
0.384	-0.0	-0.0	-0.0	14.414789199829102	0.2408232986927032	-759.036376953125	-0.0	-0.0	-0.0	-0.0	-0.0	-0.0	-0.0	-0.0	-0.0	-0.0	-0.0	-0.0
0.3845	-0.0	-0.0	-0.0	14.757242202758787	0.1519257426261901	-757.9722900390625	-0.0	-0.0	-0.0	-0.0	-0.0	-0.0	-0.0	-0.0	-0.0	-0.0	-0.0	-0.0
0.385	-0.0	-0.0	-0.0	14.362892150878906	-1.236405611038208	-760.649169921875	-0.0	-0.0	-0.0	-0.0	-0.0	-0.0	-0.0	-0.0	-0.0	-0.0	-0.0	-0.0
0.3855	-0.0	-0.0	-0.0	13.738418579101562	-2.178053379058838	-761.203369140625	-0.0	-0.0	-0.0	-0.0	-0.0	-0.0	-0.0	-0.0	-0.0	-0.0	-0.0	-0.0
0.386	-0.0	-0.0	-0.0	13.35612964630127	-2.648780107498169	-763.87841796875	-0.0	-0.0	-0.0	-0.0	-0.0	-0.0	-0.0	-0.0	-0.0	-0.0	-0.0	-0.0
0.3865	-0.0	-0.0	-0.0	11.58449935913086	-3.590669631958008	-763.8776245117188	-0.0	-0.0	-0.0	-0.0	-0.0	-0.0	-0.0	-0.0	-0.0	-0.0	-0.0	-0.0
